<?xml version="1.0" encoding="UTF-8" standalone="no"?>
<!-- Created with Inkscape (http://www.inkscape.org/) -->

<svg
   xmlns:svg="http://www.w3.org/2000/svg"
   xmlns="http://www.w3.org/2000/svg"
   version="1.1"
   width="32"
   height="32">

    <path d="M 15.22724,0.00479995 C 11.53989,0.27119995 8.1400402,2.83034 6.8908202,6.31783 c -1.15918,3.0287604 -0.62231,6.6543 1.40662,9.19517 0.88781,1.1478 2.0287598,2.08752 3.3239798,2.74635 C 9.3526802,22.83791 7.0911902,27.41998 4.8252202,32 c 3.4918,0 6.9832098,0 10.4750498,0 -0.009,-5.44152 0.009,-10.89567 -0.009,-16.3289 C 12.62403,15.43971 10.36104,13.20238 10.00767,10.568 9.5435302,7.91392 11.1102,5.0992 13.59253,4.08984 14.13355,3.86002 14.71154,3.71441 15.2961,3.652 c 0,-1.21756 0,-2.43449 0,-3.652000055000001 L 15.2229,0.00899994 z M 16.77629,3.65671 c 2.74452,0.31007 5.07748,2.69866 5.26354,5.4680304 0.28615,2.8801696 -1.76734,5.7376596 -4.56661,6.4077096 -0.20301,0.11395 -0.62168,0.0153 -0.69693,0.21393 0,5.41768 0,10.83552 0,16.25362 0.95855,0 1.91657,0 2.87503,0 0.0175,-2.9788 -0.0409,-5.96023 0.0327,-8.93806 1.50122,2.95166 2.88563,5.9633 4.3414,8.93806 1.04982,0 2.09964,0 3.14936,0 C 24.9088,27.41998 22.64704,22.83791 20.37844,18.25935 23.65803,16.63918 25.79732,13.03542 25.62971,9.3799804 25.55991,5.71165 23.24129,2.20882 19.8443,0.79873994 c -0.95973,-0.41032 -2.01414,-0.6582 -3.06675,-0.72354 0,1.19379006 0,2.38763006 0,3.58151006 z" />

</svg>
